HIERARCHY
ROOT Hips
{
 OFFSET 0.000000 0.000000 0.000000
 CHANNELS 6 Xposition Yposition Zposition Yrotation Xrotation Zrotation
 JOINT Chest
 {
  OFFSET 0.000000 9.585900 0.002600
  CHANNELS 3 Yrotation Xrotation Zrotation
  JOINT Chest2
  {
   OFFSET 0.000000 9.601200 -0.005300
   CHANNELS 3 Yrotation Xrotation Zrotation
   JOINT Chest3
   {
    OFFSET 0.000000 9.561800 0.000000
    CHANNELS 3 Yrotation Xrotation Zrotation
    JOINT Chest4
    {
     OFFSET 0.000000 9.552100 0.000000
     CHANNELS 3 Yrotation Xrotation Zrotation
     JOINT Neck
     {
      OFFSET 0.000000 14.453000 0.000000
      CHANNELS 3 Yrotation Xrotation Zrotation
      JOINT Head
      {
       OFFSET 0.000000 8.936500 -0.011300
       CHANNELS 3 Yrotation Xrotation Zrotation
       End Site
       {
        OFFSET 0.000000 17.073600 -0.006000
       }
      }
     }
     JOINT RightCollar
     {
      OFFSET -2.921100 9.558500 0.000000
      CHANNELS 3 Yrotation Xrotation Zrotation
      JOINT RightShoulder
      {
       OFFSET -13.519700 0.000000 0.000000
       CHANNELS 3 Yrotation Xrotation Zrotation
       JOINT RightElbow
       {
        OFFSET 0.000000 -29.696600 0.000000
        CHANNELS 3 Yrotation Xrotation Zrotation
        JOINT RightWrist
        {
         OFFSET 0.000000 -24.004700 0.000000
         CHANNELS 3 Yrotation Xrotation Zrotation
         End Site
         {
          OFFSET 0.000000 -17.728500 0.000000
         }
        }
       }
      }
     }
     JOINT LeftCollar
     {
      OFFSET 2.921100 9.558500 0.000000
      CHANNELS 3 Yrotation Xrotation Zrotation
      JOINT LeftShoulder
      {
       OFFSET 13.519700 0.000000 0.000000
       CHANNELS 3 Yrotation Xrotation Zrotation
       JOINT LeftElbow
       {
        OFFSET 0.000000 -29.696600 0.000000
        CHANNELS 3 Yrotation Xrotation Zrotation
        JOINT LeftWrist
        {
         OFFSET 0.000000 -24.004700 0.000000
         CHANNELS 3 Yrotation Xrotation Zrotation
         End Site
         {
          OFFSET 0.000000 -17.728500 0.000000
         }
        }
       }
      }
     }
    }
   }
  }
 }
 JOINT RightHip
 {
  OFFSET -7.771700 -0.012900 -0.001300
  CHANNELS 3 Yrotation Xrotation Zrotation
  JOINT RightKnee
  {
   OFFSET 0.000000 -40.869800 0.001200
   CHANNELS 3 Yrotation Xrotation Zrotation
   JOINT RightAnkle
   {
    OFFSET 0.000000 -39.717900 0.002100
    CHANNELS 3 Yrotation Xrotation Zrotation
    JOINT RightToe
    {
     OFFSET 0.000000 -4.965400 11.033500
     CHANNELS 3 Yrotation Xrotation Zrotation
     End Site
     {
      OFFSET 0.000000 -1.423100 5.872300
     }
    }
   }
  }
 }
 JOINT LeftHip
 {
  OFFSET 7.771700 -0.012900 -0.001300
  CHANNELS 3 Yrotation Xrotation Zrotation
  JOINT LeftKnee
  {
   OFFSET 0.000000 -40.869800 0.001200
   CHANNELS 3 Yrotation Xrotation Zrotation
   JOINT LeftAnkle
   {
    OFFSET 0.000000 -39.717900 0.002100
    CHANNELS 3 Yrotation Xrotation Zrotation
    JOINT LeftToe
    {
     OFFSET 0.000000 -4.965400 11.033500
     CHANNELS 3 Yrotation Xrotation Zrotation
     End Site
     {
      OFFSET 0.000000 -1.423100 5.872300
     }
    }
   }
  }
 }
}
MOTION
Frames: 14
Frame Time: 0.008333
0.000000 85.388000 0.000000 0.000000 -5.767877 0.000000 0.000000 11.653817 0.000000 0.000000 -5.885947 0.000000 0.000000 -0.000000 0.000000 0.000000 -0.000000 0.000000 0.000000 12.528835 0.000000 0.000000 0.711642 0.000000 0.000000 -0.000000 0.000000 0.000000 0.000000 -90.000000 0.000000 -2.309062 0.000000 0.000000 2.309062 0.000000 0.000000 -0.000000 0.000000 0.000000 -0.000000 90.000000 0.000000 -2.309062 0.000000 0.000000 2.309062 0.000000 0.000000 8.520406 0.000000 0.000000 1.905762 0.000000 -0.000000 -4.658285 0.000000 0.000000 -0.000000 0.000000 0.000000 8.520406 0.000000 0.000000 1.905762 0.000000 -0.000000 -4.658285 0.000000 0.000000 -0.000000 0.000000
-21.553981 57.964637 13.477444 176.170100 -51.743929 -2.171222 3.447631 21.196861 3.413996 1.766526 12.166513 1.796035 2.282618 15.198477 2.318636 1.766533 12.166448 1.796012 1.136080 14.066396 -1.219715 2.559743 -9.538930 -2.748760 4.005990 1.899665 1.925679 -1.593341 -21.647701 -4.965128 -10.565622 -48.807490 48.766244 19.657003 12.682116 -26.013448 -10.433958 2.112135 -1.397793 10.737893 -35.407790 -5.485691 103.048143 -62.423695 -119.990135 5.196950 -1.140661 36.110396 2.130579 -20.355296 -3.090067 -33.247222 73.519567 -37.796620 6.529669 -13.557163 10.968382 -0.051036 0.009888 -0.030188 -3.034818 -17.204913 7.036369 83.779852 84.177641 83.041145 -0.356480 -22.191932 -15.823255 0.054905 0.074529 0.024715
-21.555037 57.969192 13.482539 176.168233 -51.831557 -2.162711 3.414511 21.206120 3.413816 1.749957 12.178496 1.801488 2.262044 15.213532 2.324991 1.749977 12.178462 1.801462 1.158496 14.147784 -1.291569 2.599463 -9.364252 -2.899622 3.972644 1.806169 1.924391 -1.433350 -21.681983 -5.002978 -10.431565 -48.707359 48.613902 19.674983 12.699082 -25.937035 -10.461079 2.135633 -1.404051 11.082126 -35.247583 -5.659634 97.835235 -60.991560 -115.929755 6.202925 -2.060758 37.441003 2.136605 -20.265455 -3.093090 -33.214727 73.508234 -37.765438 6.514794 -13.546982 10.973424 -0.056756 0.002841 -0.030514 -3.067572 -17.115016 7.042884 83.709159 84.182985 82.929908 -0.363322 -22.173571 -15.824687 0.058567 0.059744 0.028054
-21.551531 57.979576 13.485129 176.147339 -51.966336 -2.167250 3.405910 21.271341 3.438571 1.733989 12.190207 1.804635 2.242102 15.228235 2.328515 1.766516 12.206884 1.789276 1.118089 14.251077 -1.356964 2.679486 -9.250665 -3.032183 3.907365 1.737568 1.943483 -1.265369 -21.772949 -5.032802 -10.311669 -48.601510 48.479608 19.682312 12.714619 -25.877897 -10.536059 2.154272 -1.377005 11.386241 -35.074345 -5.794661 94.657469 -59.729955 -113.524973 6.756698 -2.900783 38.645958 2.141889 -20.126737 -3.060005 -33.142622 73.483742 -37.695855 6.521906 -13.516274 10.971973 -0.050219 -0.024742 -0.027999 -3.092169 -16.971751 7.077517 83.598508 84.193595 82.784046 -0.364456 -22.150267 -15.827282 0.059787 0.042400 0.029421
-21.551797 57.984629 13.492719 176.149034 -52.059318 -2.172101 3.375314 21.306464 3.433880 1.719323 12.200017 1.805072 2.223771 15.240587 2.328667 1.785666 12.230968 1.788703 1.125527 14.291496 -1.396364 2.719758 -9.084388 -3.170268 3.825986 1.691260 1.962708 -1.080864 -21.885468 -5.067113 -10.220768 -48.477847 48.367934 19.700674 12.718113 -25.822782 -10.624398 2.190248 -1.354665 11.551156 -34.903764 -5.861020 93.250734 -58.838988 -112.302761 6.823889 -3.402140 39.571785 2.138347 -20.029372 -3.046145 -33.120733 73.471718 -37.678036 6.513322 -13.513931 10.973884 -0.029602 -0.027895 -0.025048 -3.123661 -16.873144 7.092365 83.412120 84.188654 82.563230 -0.374174 -22.128950 -15.827365 0.055872 0.039617 0.030124
-21.550709 57.988475 13.502336 176.154323 -52.137072 -2.192744 3.365387 21.356373 3.447035 1.690764 12.182969 1.795521 2.221247 15.259281 2.330550 1.763076 12.228685 1.802861 1.127567 14.375165 -1.478439 2.788673 -8.960925 -3.280013 3.752122 1.683363 1.972940 -0.878350 -22.012195 -5.103426 -10.165173 -48.326235 48.270676 19.751980 12.699768 -25.752733 -10.692479 2.259747 -1.351581 11.556885 -34.739700 -5.859904 93.158991 -58.516071 -111.828241 6.566331 -3.562398 40.139630 2.131332 -19.943374 -3.020838 -33.086960 73.456279 -37.645274 6.523639 -13.520249 10.973812 -0.035717 -0.025271 -0.024529 -3.179366 -16.786321 7.130039 83.370760 84.195833 82.470892 -0.386942 -22.130722 -15.830911 0.065608 0.041919 0.036796
-21.550862 57.988353 13.515569 176.151601 -52.176417 -2.205623 3.338802 21.335647 3.434044 1.683290 12.204302 1.793567 2.249741 15.290218 2.343444 1.705041 12.208613 1.802950 1.134982 14.452886 -1.552295 2.861801 -8.853267 -3.377355 3.667119 1.693075 1.999203 -0.664434 -22.146193 -5.139345 -10.099614 -48.222412 48.200767 19.756898 12.701501 -25.698387 -10.756792 2.350779 -1.338154 11.433742 -34.574060 -5.808950 93.920104 -58.827616 -111.822201 6.180272 -3.526118 40.379765 2.127813 -19.893286 -2.998129 -33.020828 73.414415 -37.584469 6.543118 -13.511137 10.980159 -0.061060 -0.012960 -0.027346 -3.201679 -16.744590 7.149870 83.259974 84.195880 82.337899 -0.379081 -22.127712 -15.833240 0.062532 0.052906 0.037356
-21.552902 57.989937 13.527704 176.160986 -52.218685 -2.220684 3.312655 21.335276 3.415929 1.666779 12.217206 1.783044 2.233661 15.288961 2.346604 1.629118 12.208433 1.777088 1.243434 14.508377 -1.573735 2.902541 -8.740047 -3.490933 3.643964 1.727197 2.041795 -0.467603 -22.283139 -5.171121 -10.082348 -48.165257 48.223795 19.739108 12.751678 -25.674142 -10.755450 2.468779 -1.313864 11.225381 -34.392364 -5.728264 95.256267 -59.698054 -112.166874 5.846224 -3.430373 40.328739 2.121099 -19.839533 -2.977544 -32.991533 73.381602 -37.558203 6.519062 -13.509108 10.985691 -0.046443 0.006561 -0.022812 -3.222162 -16.700932 7.158728 83.156665 84.189312 82.218463 -0.379916 -22.122368 -15.833219 0.066408 0.059471 0.037775
-21.553938 57.994275 13.538148 176.172628 -52.271305 -2.246355 3.308781 21.377958 3.428608 1.627853 12.204782 1.750192 2.154007 15.281118 2.299731 1.664142 12.232117 1.783363 1.319613 14.537817 -1.582006 2.939050 -8.653160 -3.592458 3.595217 1.753961 2.092143 -0.307906 -22.419762 -5.192170 -10.079157 -48.077826 48.239035 19.761135 12.758523 -25.626660 -10.780689 2.579931 -1.274789 10.982877 -34.185449 -5.639350 97.076730 -60.961603 -112.882685 5.689096 -3.330156 40.028394 2.107250 -19.776440 -2.949437 -32.957754 73.356022 -37.530121 6.519245 -13.520240 10.988254 -0.052749 0.020711 -0.020966 -3.235939 -16.647032 7.174123 83.045218 84.185306 82.103492 -0.384595 -22.113046 -15.834971 0.066340 0.059207 0.038077
-21.552497 58.000798 13.547440 176.166471 -52.331026 -2.274488 3.296704 21.407578 3.424407 1.614329 12.217939 1.740313 2.141959 15.290256 2.288665 1.654766 12.239362 1.774824 1.302396 14.588043 -1.658268 3.036128 -8.623948 -3.632424 3.536002 1.789463 2.136845 -0.184656 -22.550373 -5.198372 -10.089735 -48.011143 48.286412 19.786744 12.766744 -25.578729 -10.815045 2.695858 -1.233873 10.752813 -33.957109 -5.562942 99.257145 -62.364408 -113.980392 5.684734 -3.238435 39.587267 2.102005 -19.707112 -2.903536 -32.919524 73.326815 -37.493172 6.520100 -13.514073 10.991646 -0.037977 0.014867 -0.019444 -3.258188 -16.580084 7.205944 82.897607 84.185478 81.944258 -0.374500 -22.100763 -15.843299 0.059802 0.055831 0.032553
-21.554158 58.002896 13.559976 176.164932 -52.350048 -2.289740 3.269705 21.403935 3.398065 1.602197 12.229868 1.731200 2.131919 15.298988 2.277756 1.646982 12.246286 1.766340 1.341224 14.604379 -1.678173 3.079475 -8.577444 -3.701465 3.487520 1.832228 2.175002 -0.078820 -22.653238 -5.200715 -10.078313 -47.967814 48.306958 19.796843 12.733267 -25.525887 -10.835746 2.816295 -1.192376 10.570098 -33.718281 -5.520913 101.550662 -63.661009 -115.340933 5.733000 -3.162039 39.123726 2.101565 -19.680301 -2.882234 -32.873606 73.297672 -37.444295 6.516043 -13.504406 10.995767 -0.026598 0.023541 -0.019070 -3.291719 -16.559181 7.221331 82.772730 84.174341 81.798290 -0.364587 -22.086881 -15.857430 0.057265 0.060196 0.034911
-21.553565 58.007510 13.570982 176.145651 -52.381945 -2.302952 3.210369 21.407238 3.335346 1.654781 12.253409 1.768132 2.109800 15.306728 2.262756 1.675716 12.248766 1.770551 1.351962 14.613706 -1.694783 3.102590 -8.531934 -3.766762 3.419222 1.879075 2.199085 0.025554 -22.716370 -5.213054 -10.210547 -47.981700 48.452684 19.837317 12.800648 -25.505535 -10.875978 2.940123 -1.159199 10.489372 -33.483774 -5.552486 103.688658 -64.712337 -116.777014 5.773257 -3.095925 38.691243 2.108745 -19.642054 -2.842754 -32.867486 73.265378 -37.432108 6.499351 -13.494543 10.999062 -0.011787 0.025742 -0.016535 -3.303172 -16.522560 7.248393 82.635501 84.164684 81.651448 -0.360640 -22.074826 -15.865577 0.055088 0.063234 0.034596
-21.549426 58.014268 13.580890 176.083042 -52.425938 -2.300374 3.223607 21.438901 3.344472 1.651442 12.260291 1.763858 2.105468 15.315372 2.257290 1.699788 12.248855 1.768245 1.333812 14.632158 -1.728272 3.141399 -8.500077 -3.809324 3.408381 1.901545 2.212322 -0.061553 -22.793180 -5.145243 -10.221670 -47.970655 48.581641 19.863717 12.812530 -25.438495 -10.896707 3.067981 -1.128259 10.566283 -33.267421 -5.688913 105.435796 -65.471348 -118.090502 5.781106 -3.039336 38.289588 2.132912 -19.592374 -2.783851 -32.861216 73.231007 -37.418445 6.487334 -13.488603 11.000528 -0.028877 0.018615 -0.017244 -3.299445 -16.469716 7.294956 82.506462 84.153826 81.508355 -0.345051 -22.060073 -15.884331 0.053458 0.060144 0.035957
-21.548938 58.019507 13.591642 176.053534 -52.455339 -2.299389 3.217384 21.460572 3.340366 1.624672 12.265448 1.750222 2.142547 15.321602 2.265033 1.623423 12.267493 1.755510 1.340968 14.664176 -1.776566 3.210330 -8.497692 -3.846169 3.471380 1.910242 2.211492 -0.132051 -22.819797 -5.089452 -10.260273 -48.000540 48.710113 19.876002 12.806147 -25.363622 -10.825347 3.179881 -1.109784 10.791074 -33.073202 -5.908481 106.621578 -65.945421 -119.101381 5.740525 -3.018354 37.916310 2.134768 -19.557403 -2.752711 -32.840497 73.209656 -37.402973 6.483200 -13.488118 11.000473 -0.028728 0.018605 -0.015755 -3.296988 -16.436812 7.315813 82.362975 84.146506 81.363033 -0.350988 -22.045465 -15.891526 0.058649 0.055952 0.034478
